<svg xmlns="http://www.w3.org/2000/svg" viewBox="0 0 48 48"><title>pencil</title><g id="pencil"><path d="M46.84,5.32,42.68,1.16a4,4,0,0,0-5.58,0C1.7,36.55,3.65,34.52,3.53,34.88S3,36.78,0,46.72A1,1,0,0,0,1,48c.21,0,12.08-3.45,12.39-3.68S10.64,47.11,46.84,10.9A4,4,0,0,0,46.84,5.32ZM35,6.05,42,13l-1.37,1.37L33.66,7.42ZM10.45,38.91l-1-.34-.34-1L35,11.61,36.39,13ZM32.25,8.83l1.36,1.37L7.79,36,6.08,35ZM3.32,42.67a7.68,7.68,0,0,1,2,2l-2.85.84Zm4,1.42a9.88,9.88,0,0,0-3.43-3.43l1.16-3.94,2,1.23c.88,2.62.38,2.08,2.94,2.94l1.23,2ZM13,41.92l-1-1.71L37.8,14.39l1.37,1.36ZM45.43,9.49l-2.07,2.07L36.44,4.64l2.07-2.07a1.94,1.94,0,0,1,2.75,0l4.17,4.17A1.94,1.94,0,0,1,45.43,9.49Z"/></g></svg>