<svg xmlns="http://www.w3.org/2000/svg" viewBox="0 0 88 88"><title>Artboard-27</title><g id="Paint_brush" data-name="Paint brush"><path d="M26.3066,61.791c-3.9795-3.6279-10.7031-5.1553-15.3232-.8389-7.7646,7.253-8.8355,24.27-8.8774,24.99a1,1,0,0,0,1.7309.7383c4.9741-5.3526,8.7051-4.9366,12.311-4.53,3.5962.4014,7.3121.8193,11.3555-4.4024C32.4844,71.3164,29.9717,65.1318,26.3066,61.791Z" style="fill:#1e1f21"/><polygon points="29.451 47.497 40.594 58.94 46.23 53.992 34.27 41.709 29.451 47.497" style="fill:#1e1f21"/><path d="M82.3477,4.6572A11.9186,11.9186,0,0,0,73.7505,1H73.75a11.8892,11.8892,0,0,0-8.5786,3.6377c-.229.2353-.4473.4814-.648.7285L35.556,40.1637,47.7345,52.6709,81.6572,22.8867a12.4157,12.4157,0,0,0,4.2285-8.9394A12.6491,12.6491,0,0,0,82.3477,4.6572Z" style="fill:#1e1f21"/><path d="M21.6088,56.918a15.6448,15.6448,0,0,1,6.0455,3.3955,14.2793,14.2793,0,0,1,4.0716,6.413L39.09,60.2613,28.165,49.0422Z" style="fill:#1e1f21"/></g></svg>